<?xml version="1.0" encoding="UTF-8" standalone="no"?>
<svg
   xmlns:dc="http://purl.org/dc/elements/1.1/"
   xmlns:cc="http://creativecommons.org/ns#"
   xmlns:rdf="http://www.w3.org/1999/02/22-rdf-syntax-ns#"
   xmlns:svg="http://www.w3.org/2000/svg"
   xmlns="http://www.w3.org/2000/svg"
   xmlns:sodipodi="http://sodipodi.sourceforge.net/DTD/sodipodi-0.dtd"
   xmlns:inkscape="http://www.inkscape.org/namespaces/inkscape"
   version="1.1"
   id="svg10"
   xml:space="preserve"
   width="80"
   height="80"
   viewBox="0 0 80 80"
   sodipodi:docname="icon-4.svg"
   inkscape:version="1.0.1 (c497b03c, 2020-09-10)"><metadata
     id="metadata16"><rdf:RDF><cc:Work
         rdf:about=""><dc:format>image/svg+xml</dc:format><dc:type
           rdf:resource="http://purl.org/dc/dcmitype/StillImage" /><dc:title></dc:title></cc:Work></rdf:RDF></metadata><defs
     id="defs14"><clipPath
       clipPathUnits="userSpaceOnUse"
       id="clipPath28"><path
         d="M 0,5102.362 H 2267.717 V 0 H 0 Z"
         id="path26" /></clipPath><clipPath
       clipPathUnits="userSpaceOnUse"
       id="clipPath38"><path
         d="M 0,1184.3 H 591.977 V 0.341812 H 0 Z"
         id="path36" /></clipPath><clipPath
       clipPathUnits="userSpaceOnUse"
       id="clipPath62"><path
         d="m 1676.25,5103.95 h 591.98 V 3920 h -591.98 z"
         id="path60" /></clipPath><clipPath
       clipPathUnits="userSpaceOnUse"
       id="clipPath102"><path
         d="M 123.464,4729.43 H 2144.25 v -3 H 123.464 Z"
         id="path100" /></clipPath><clipPath
       clipPathUnits="userSpaceOnUse"
       id="clipPath422"><path
         d="M 0,5102.362 H 2267.717 V 0 H 0 Z"
         id="path420" /></clipPath><clipPath
       clipPathUnits="userSpaceOnUse"
       id="clipPath1346"><path
         d="M 0,5102.362 H 2267.717 V 0 H 0 Z"
         id="path1344" /></clipPath><clipPath
       clipPathUnits="userSpaceOnUse"
       id="clipPath1404"><path
         d="M 0,5102.362 H 2267.717 V 0 H 0 Z"
         id="path1402" /></clipPath><clipPath
       clipPathUnits="userSpaceOnUse"
       id="clipPath1464"><path
         d="M 0,5102.362 H 2267.717 V 0 H 0 Z"
         id="path1462" /></clipPath><clipPath
       clipPathUnits="userSpaceOnUse"
       id="clipPath1532"><path
         d="M 0,5102.362 H 2267.717 V 0 H 0 Z"
         id="path1530" /></clipPath><clipPath
       clipPathUnits="userSpaceOnUse"
       id="clipPath1618"><path
         d="M 0,5102.362 H 2267.717 V 0 H 0 Z"
         id="path1616" /></clipPath><clipPath
       clipPathUnits="userSpaceOnUse"
       id="clipPath1692"><path
         d="M 0,5102.362 H 2267.717 V 0 H 0 Z"
         id="path1690" /></clipPath><clipPath
       clipPathUnits="userSpaceOnUse"
       id="clipPath1756"><path
         d="M 0,5102.362 H 2267.717 V 0 H 0 Z"
         id="path1754" /></clipPath><clipPath
       clipPathUnits="userSpaceOnUse"
       id="clipPath1786"><path
         d="M 0,5102.362 H 2267.717 V 0 H 0 Z"
         id="path1784" /></clipPath><clipPath
       clipPathUnits="userSpaceOnUse"
       id="clipPath1838"><path
         d="M 0,5102.362 H 2267.717 V 0 H 0 Z"
         id="path1836" /></clipPath></defs><sodipodi:namedview
     pagecolor="#ffffff"
     bordercolor="#666666"
     borderopacity="1"
     objecttolerance="10"
     gridtolerance="10"
     guidetolerance="10"
     inkscape:pageopacity="0"
     inkscape:pageshadow="2"
     inkscape:window-width="1440"
     inkscape:window-height="900"
     id="namedview12"
     showgrid="false"
     inkscape:zoom="0.60646698"
     inkscape:cx="99.037854"
     inkscape:cy="525.58285"
     inkscape:window-x="0"
     inkscape:window-y="0"
     inkscape:window-maximized="0"
     inkscape:current-layer="g18"
     inkscape:document-rotation="0" /><g
     id="g18"
     inkscape:groupmode="layer"
     inkscape:label="180x80 stand"
     transform="matrix(1.3333333,0,0,-1.3333333,0,6803.1467)"><g
       id="g1706"
       transform="matrix(0.26116935,0,0,0.26116935,20.096224,5067.1953)"><path
         d="m 0,0 c -0.883,4.204 -2.995,7.722 -6.335,10.506 -2.978,2.481 -6.382,3.836 -10.218,4.307 -0.072,-0.287 -0.135,-0.539 -0.2,-0.79 -0.298,-1.141 -0.979,-2.009 -1.907,-2.714 -2.169,-1.647 -4.704,-2.366 -7.334,-2.593 -2.866,-0.249 -5.742,-0.07 -8.476,1 -1.67,0.653 -3.266,1.459 -4.261,3.036 -0.393,0.623 -0.595,1.365 -0.891,2.071 -0.171,-0.046 -0.351,-0.122 -0.536,-0.139 -1.924,-0.185 -3.73,-0.771 -5.477,-1.572 -2.955,-1.353 -5.365,-3.379 -7.273,-5.985 -2.05,-2.803 -3.221,-5.978 -3.477,-9.426 -0.115,-1.549 0.046,-3.143 0.281,-4.687 0.369,-2.419 1.724,-4.242 3.89,-5.385 2.473,-1.306 5.21,-1.609 7.931,-1.743 2.774,-0.138 5.559,-0.031 8.442,-0.031 l 19.468,0.146 c 1.759,0 3.623,-0.015 5.487,0.004 2.104,0.02 4.144,0.436 6.103,1.182 1.809,0.689 3.265,1.863 4.114,3.626 C 0.754,-6.227 0.649,-3.089 0,0"
         style="fill:#c4161d;fill-opacity:1;fill-rule:nonzero;stroke:none"
         id="path1708" /></g><g
       id="g1710"
       transform="matrix(0.26116935,0,0,0.26116935,8.98211,5075.8841)"><path
         d="m 0,0 c 8.781,-0.001 17.562,0 26.344,0 0.975,0 1.951,-0.011 2.927,0.003 0.833,0.011 1.865,0.668 2.041,1.368 0.217,0.869 0.195,1.761 -0.654,2.299 -0.541,0.343 -1.196,0.506 -1.863,0.775 -0.237,5.467 -2.796,9.653 -7.809,12.491 -0.312,-1.721 -0.602,-3.314 -0.889,-4.908 -0.11,-0.61 -0.178,-1.23 -0.326,-1.832 -0.153,-0.618 -0.712,-0.937 -1.328,-0.834 -0.453,0.076 -0.92,0.7 -0.833,1.201 0.353,2.046 0.74,4.086 1.092,6.133 0.141,0.821 0.58,1.749 -0.453,2.31 -0.511,0.277 -1.095,0.537 -1.66,0.571 -1.361,0.082 -2.731,0.034 -4.096,0.024 -0.839,-0.007 -1.504,-0.38 -2.096,-0.969 -0.476,-0.474 -0.184,-0.944 -0.106,-1.415 0.351,-2.122 0.705,-4.243 1.084,-6.36 C 11.494,10.192 11.231,9.516 10.713,9.367 10.059,9.179 9.411,9.573 9.268,10.317 8.998,11.724 8.777,13.139 8.523,14.548 8.386,15.309 8.225,16.064 8.052,16.936 3.063,14.073 0.503,9.901 0.258,4.237 0.074,4.237 -0.116,4.249 -0.304,4.235 -1.277,4.169 -2.188,3.401 -2.301,2.562 -2.507,1.033 -1.584,0.001 0,0"
         style="fill:#c4161d;fill-opacity:1;fill-rule:nonzero;stroke:none"
         id="path1712" /></g><g
       id="g1714"
       transform="matrix(0.26116935,0,0,0.26116935,15.79534,5074.1748)"><path
         d="m 0,0 c -0.982,-3.649 -2.728,-6.849 -5.75,-9.232 -1.475,-1.165 -3.164,-1.903 -5.036,-2.067 -2.764,-0.243 -5.151,0.771 -7.193,2.549 -2.145,1.867 -3.654,4.22 -4.538,6.908 -0.673,2.048 -1.131,4.168 -1.698,6.307 h -1.563 c 0.263,-1.421 0.438,-2.776 0.77,-4.09 1.176,-4.654 3.168,-8.849 7.18,-11.761 2.747,-1.993 5.794,-2.7 9.12,-1.7 3.242,0.975 5.553,3.148 7.39,5.882 1.505,2.241 2.514,4.716 3.15,7.33 0.341,1.402 0.539,2.841 0.814,4.325 H 0.982 C 0.651,2.932 0.39,1.448 0,0"
         style="fill:#c4161d;fill-opacity:1;fill-rule:nonzero;stroke:none"
         id="path1716" /></g><g
       id="g1718"
       transform="matrix(0.26116935,0,0,0.26116935,54.520592,5067.1953)"><path
         d="m 0,0 c -0.883,4.204 -2.995,7.722 -6.335,10.506 -2.977,2.481 -6.382,3.836 -10.218,4.307 -0.072,-0.287 -0.134,-0.539 -0.2,-0.79 -0.298,-1.141 -0.978,-2.009 -1.907,-2.714 -2.169,-1.647 -4.704,-2.366 -7.334,-2.593 -2.866,-0.249 -5.742,-0.07 -8.476,1 -1.67,0.653 -3.266,1.459 -4.261,3.036 -0.393,0.623 -0.594,1.365 -0.89,2.071 -0.172,-0.046 -0.352,-0.122 -0.537,-0.139 -1.924,-0.185 -3.729,-0.771 -5.477,-1.572 -2.955,-1.353 -5.365,-3.379 -7.273,-5.985 -2.05,-2.803 -3.221,-5.978 -3.477,-9.426 -0.115,-1.549 0.047,-3.143 0.281,-4.687 0.369,-2.419 1.724,-4.242 3.89,-5.385 2.473,-1.306 5.21,-1.609 7.932,-1.743 2.773,-0.138 5.558,-0.031 8.441,-0.031 l 19.468,0.146 c 1.76,0 3.623,-0.015 5.487,0.004 2.104,0.02 4.144,0.436 6.103,1.182 1.809,0.689 3.265,1.863 4.114,3.626 C 0.754,-6.227 0.649,-3.089 0,0"
         style="fill:#c4161d;fill-opacity:1;fill-rule:nonzero;stroke:none"
         id="path1720" /></g><g
       id="g1722"
       transform="matrix(0.26116935,0,0,0.26116935,43.406606,5075.8841)"><path
         d="m 0,0 c 8.781,-0.001 17.562,0 26.343,0 0.976,0 1.952,-0.011 2.928,0.003 0.832,0.011 1.865,0.668 2.04,1.368 0.218,0.869 0.195,1.761 -0.654,2.299 -0.54,0.343 -1.195,0.506 -1.863,0.775 -0.236,5.467 -2.795,9.653 -7.808,12.491 -0.312,-1.721 -0.603,-3.314 -0.889,-4.908 -0.11,-0.61 -0.178,-1.23 -0.326,-1.832 -0.153,-0.618 -0.713,-0.937 -1.328,-0.834 -0.453,0.076 -0.92,0.7 -0.833,1.201 0.353,2.046 0.74,4.086 1.092,6.133 0.141,0.821 0.579,1.749 -0.453,2.31 -0.511,0.277 -1.095,0.537 -1.661,0.571 -1.36,0.082 -2.73,0.034 -4.096,0.024 -0.839,-0.007 -1.503,-0.38 -2.095,-0.969 -0.476,-0.474 -0.184,-0.944 -0.106,-1.415 0.351,-2.122 0.705,-4.243 1.084,-6.36 C 11.494,10.192 11.231,9.516 10.712,9.367 10.058,9.179 9.411,9.573 9.268,10.317 8.998,11.724 8.776,13.139 8.523,14.548 8.386,15.309 8.225,16.064 8.052,16.936 3.063,14.073 0.503,9.901 0.258,4.237 0.073,4.237 -0.117,4.249 -0.304,4.235 -1.277,4.169 -2.188,3.401 -2.302,2.562 -2.508,1.033 -1.584,0.001 0,0"
         style="fill:#c4161d;fill-opacity:1;fill-rule:nonzero;stroke:none"
         id="path1724" /></g><g
       id="g1726"
       transform="matrix(0.26116935,0,0,0.26116935,50.219837,5074.1748)"><path
         d="m 0,0 c -0.982,-3.649 -2.729,-6.849 -5.75,-9.232 -1.476,-1.165 -3.164,-1.903 -5.036,-2.067 -2.764,-0.243 -5.152,0.771 -7.194,2.549 -2.144,1.867 -3.653,4.22 -4.537,6.908 -0.674,2.048 -1.131,4.168 -1.698,6.307 h -1.563 c 0.263,-1.421 0.437,-2.776 0.77,-4.09 1.176,-4.654 3.168,-8.849 7.18,-11.761 2.746,-1.993 5.794,-2.7 9.12,-1.7 3.242,0.975 5.552,3.148 7.39,5.882 1.505,2.241 2.514,4.716 3.15,7.33 0.341,1.402 0.539,2.841 0.814,4.325 H 0.982 C 0.651,2.932 0.39,1.448 0,0"
         style="fill:#c4161d;fill-opacity:1;fill-rule:nonzero;stroke:none"
         id="path1728" /></g><path
       d="M 58.163981,5044.1962 H 1.8362817 v 56.3277 H 58.163981 Z M 0,5042.3602 h 60.000002 v 60 H 0 Z"
       style="fill:#c4161d;fill-opacity:1;fill-rule:nonzero;stroke:none;stroke-width:0.26117"
       id="path1730" /><g
       id="g1732"
       transform="matrix(0.26116935,0,0,0.26116935,44.510204,5062.2145)"><path
         d="m 0,0 c -1.753,8.347 -5.946,15.329 -12.579,20.858 -5.91,4.926 -12.671,7.616 -20.285,8.553 -0.145,-0.57 -0.268,-1.07 -0.398,-1.569 -0.591,-2.268 -1.943,-3.991 -3.785,-5.39 -4.307,-3.269 -9.341,-4.695 -14.563,-5.149 -5.69,-0.493 -11.401,-0.139 -16.828,1.986 -3.316,1.297 -6.484,2.898 -8.46,6.028 -0.78,1.237 -1.18,2.711 -1.768,4.112 -0.341,-0.091 -0.698,-0.242 -1.065,-0.277 -3.82,-0.365 -7.405,-1.53 -10.874,-3.119 -5.867,-2.687 -10.653,-6.709 -14.44,-11.885 -4.072,-5.563 -6.395,-11.868 -6.904,-18.712 -0.228,-3.076 0.092,-6.243 0.559,-9.308 0.732,-4.803 3.421,-8.421 7.723,-10.691 4.91,-2.592 10.343,-3.196 15.747,-3.461 5.506,-0.273 11.037,-0.061 16.759,-0.061 l 38.655,0.289 c 3.492,0 7.193,-0.029 10.893,0.008 4.177,0.042 8.228,0.868 12.116,2.348 3.593,1.367 6.484,3.698 8.168,7.2 C 1.498,-12.364 1.289,-6.135 0,0"
         style="fill:#c4161d;fill-opacity:1;fill-rule:nonzero;stroke:none"
         id="path1734" /></g><g
       id="g1736"
       transform="matrix(0.26116935,0,0,0.26116935,22.443927,5079.4655)"><path
         d="m 0,0 c 17.435,-0.004 34.869,-0.002 52.304,-0.002 1.937,0 3.875,-0.019 5.811,0.007 1.654,0.022 3.704,1.326 4.052,2.716 0.432,1.726 0.388,3.496 -1.298,4.565 -1.074,0.68 -2.373,1.003 -3.699,1.538 -0.47,10.856 -5.551,19.165 -15.503,24.799 -0.62,-3.416 -1.197,-6.578 -1.766,-9.742 -0.218,-1.212 -0.352,-2.444 -0.647,-3.637 -0.304,-1.227 -1.415,-1.862 -2.636,-1.657 -0.9,0.151 -1.826,1.39 -1.655,2.384 0.702,4.062 1.469,8.114 2.169,12.176 0.28,1.629 1.15,3.473 -0.901,4.587 -1.013,0.551 -2.173,1.066 -3.295,1.133 -2.702,0.163 -5.421,0.069 -8.133,0.048 -1.665,-0.014 -2.985,-0.755 -4.16,-1.924 -0.944,-0.94 -0.366,-1.873 -0.211,-2.809 0.697,-4.212 1.4,-8.424 2.151,-12.626 0.237,-1.322 -0.285,-2.663 -1.313,-2.959 -1.3,-0.374 -2.585,0.409 -2.869,1.886 -0.536,2.791 -0.976,5.602 -1.479,8.4 -0.272,1.51 -0.592,3.011 -0.935,4.741 C 6.082,27.94 1,19.657 0.513,8.412 0.146,8.412 -0.231,8.435 -0.604,8.409 -2.536,8.275 -4.345,6.753 -4.569,5.085 -4.979,2.05 -3.146,0 0,0"
         style="fill:#c4161d;fill-opacity:1;fill-rule:nonzero;stroke:none"
         id="path1738" /></g><g
       id="g1740"
       transform="matrix(0.26116935,0,0,0.26116935,35.971169,5076.0716)"><path
         d="m 0,0 c -1.95,-7.246 -5.417,-13.598 -11.415,-18.332 -2.93,-2.313 -6.282,-3.775 -10,-4.102 -5.488,-0.482 -10.228,1.53 -14.282,5.062 -4.258,3.707 -7.254,8.377 -9.01,13.715 -1.337,4.066 -2.244,8.275 -3.37,12.521 h -3.103 c 0.521,-2.821 0.868,-5.51 1.528,-8.121 2.336,-9.24 6.29,-17.567 14.256,-23.349 5.453,-3.957 11.504,-5.361 18.106,-3.376 6.437,1.934 11.025,6.25 14.673,11.679 2.989,4.449 4.992,9.363 6.254,14.552 0.677,2.785 1.071,5.64 1.615,8.587 H 1.951 C 1.293,5.82 0.774,2.876 0,0"
         style="fill:#c4161d;fill-opacity:1;fill-rule:nonzero;stroke:none"
         id="path1742" /></g></g></svg>
